<?xml version="1.0" encoding="utf-8"?>
<!-- Generator: Adobe Illustrator 27.0.0, SVG Export Plug-In . SVG Version: 6.00 Build 0)  -->
<svg version="1.1" id="Layer_1" xmlns="http://www.w3.org/2000/svg" xmlns:xlink="http://www.w3.org/1999/xlink" x="0px" y="0px"
	 viewBox="101 35 53 53" xml:space="preserve">
<style type="text/css">
	.st0{fill:#7C4DFF;}
	.st1{fill:#FFFFFF;}
</style>
<g>
	<g>
		<path class="st0" d="M144.41,88.03h-33.7c-5.36,0-9.7-4.34-9.7-9.7v-33.7c0-5.36,4.34-9.7,9.7-9.7h33.7c5.36,0,9.7,4.34,9.7,9.7
			v33.7C154.11,83.68,149.77,88.03,144.41,88.03z"/>
	</g>
	<g>
		<g>
			<path class="st1" d="M129.02,52.77h-10.34c-2.97,0-5.4-2.59-5.42-5.77c-0.01-1.62,0.61-3.18,1.71-4.29
				c1.01-1.02,2.33-1.58,3.71-1.58h6.65c2.04,0,3.7,1.66,3.7,3.71l0.01,1.88c0.01,1.52,0.02,3.05,0,4.57L129.02,52.77z
				 M118.69,44.13c-0.58,0-1.14,0.25-1.58,0.69c-0.54,0.54-0.85,1.33-0.84,2.15c0.01,1.54,1.1,2.79,2.42,2.79h7.37
				c0-1.01,0-2.02-0.01-3.03l-0.01-1.89c0-0.39-0.32-0.71-0.7-0.71H118.69z"/>
		</g>
		<g>
			<path class="st1" d="M129.02,70.04h-10.34c-2.97,0-5.4-2.59-5.42-5.77c-0.01-1.62,0.61-3.18,1.71-4.29
				c1.01-1.02,2.33-1.58,3.71-1.58h10.38l-0.02,1.52c-0.01,1.35-0.01,2.71,0,4.06c0.01,1.53,0.02,3.06,0,4.58L129.02,70.04z
				 M118.69,61.4c-0.58,0-1.14,0.25-1.59,0.69c-0.54,0.54-0.85,1.33-0.84,2.15c0.01,1.54,1.1,2.79,2.42,2.79h7.37
				c0-1.01,0-2.03-0.01-3.04c-0.01-0.86-0.01-1.73-0.01-2.59H118.69z"/>
		</g>
		<g>
			<path class="st1" d="M136.43,61.4h-10.34l-0.02-1.48c-0.02-1.52-0.01-3.04,0-4.57c0.01-1.36,0.02-2.72,0-4.08l-0.02-1.52h10.38
				c1.39,0,2.71,0.56,3.71,1.58c1.1,1.11,1.72,2.67,1.71,4.29C141.83,58.81,139.4,61.4,136.43,61.4z M129.06,58.4h7.37
				c1.33,0,2.41-1.25,2.42-2.79c0.01-0.82-0.3-1.61-0.84-2.15c-0.44-0.44-1-0.69-1.58-0.69h-7.35c0,0.87,0,1.74-0.01,2.61
				C129.06,56.39,129.06,57.39,129.06,58.4z"/>
		</g>
		<g>
			<path class="st1" d="M131.88,82.84c-0.02,0-0.03,0-0.05,0c-3.18-0.02-5.77-2.46-5.77-5.42V67.07l1.48-0.02
				c1.52-0.02,3.04-0.01,4.57,0l1.54,0.01c2.24,0.01,4.05,1.83,4.05,4.06v6.3c0,1.39-0.56,2.71-1.58,3.72
				C135.02,82.22,133.48,82.84,131.88,82.84z M129.06,70.04v7.37c0,1.33,1.25,2.41,2.79,2.42c0.83-0.01,1.61-0.3,2.15-0.84
				c0.44-0.44,0.69-1,0.69-1.59v-6.3c0-0.58-0.48-1.05-1.07-1.06l-1.54-0.01C131.08,70.04,130.07,70.04,129.06,70.04z"/>
		</g>
	</g>
</g>
</svg>
